<?xml version="1.0" encoding="UTF-8" standalone="no"?>
<svg
   version="1.0"
   width="453.17435pt"
   height="386.91425pt"
   viewBox="0 0 453.17435 386.91425"
   preserveAspectRatio="xMidYMid"
   id="svg10"
   xmlns="http://www.w3.org/2000/svg"
   xmlns:svg="http://www.w3.org/2000/svg">
  <defs
     id="defs10" />
  <g
     transform="matrix(0.1,0,0,-0.1,-0.72927067,386.91429)"
     fill="#000000"
     stroke="none"
     id="g10"
     style="fill:#fbfbfb;fill-opacity:1">
    <path
       d="m 1237,3860 c -15,-5 -49,-24 -75,-43 -48,-34 -52,-35 -193,-46 -170,-13 -265,-37 -373,-94 -98,-52 -161,-112 -205,-197 -21,-40 -67,-100 -121,-155 -150,-156 -158,-171 -121,-224 11,-15 31,-56 46,-93 14,-36 39,-78 56,-93 19,-20 29,-39 29,-59 0,-17 9,-50 20,-74 38,-85 150,-104 263,-46 142,74 147,76 173,70 37,-10 69,-49 84,-101 17,-62 9,-174 -29,-371 -31,-168 -48,-294 -38,-294 3,0 43,27 89,60 162,117 407,220 649,274 23,5 28,13 34,53 13,87 86,365 125,473 20,58 58,150 83,205 l 46,99 -36,51 c -66,90 -179,229 -250,305 -68,72 -71,79 -78,135 -10,87 -23,121 -56,150 -32,26 -69,31 -122,15 z M 695,3439 c 12,-18 -5,-58 -31,-75 -36,-24 -74,-6 -74,35 0,23 6,32 28,39 36,14 69,14 77,1 z m 723,-341 c 16,-16 15,-73 -3,-107 -21,-42 -72,-81 -105,-81 -30,0 -40,15 -40,61 0,82 104,171 148,127 z m -1118,-8 c 0,-6 -7,-25 -16,-41 -15,-30 -16,-30 -36,-13 -20,19 -20,19 7,41 28,25 45,29 45,13 z m 1172,-322 c 13,-38 -8,-105 -43,-140 -22,-23 -36,-29 -61,-26 -28,3 -33,8 -41,41 -12,48 4,87 50,128 44,38 82,37 95,-3 z"
       id="path1"
       style="fill:#fbfbfb;fill-opacity:1" />
    <path
       d="m 2460,3859 c -65,-11 -167,-57 -220,-99 -54,-42 -113,-134 -150,-233 -21,-55 -52,-110 -91,-163 -123,-161 -224,-357 -289,-559 -27,-87 -100,-374 -100,-399 0,-5 14,-6 32,-2 18,3 86,11 153,17 76,6 129,16 144,26 41,27 191,175 240,238 113,143 152,235 161,375 l 6,105 18,-40 c 27,-59 32,-159 11,-230 -37,-130 -128,-276 -239,-385 -31,-30 -56,-57 -56,-61 0,-3 55,-9 123,-12 67,-4 154,-10 192,-13 l 70,-6 68,91 c 75,101 133,209 169,316 19,59 23,91 23,201 0,131 0,131 -36,202 l -36,70 26,7 c 14,3 43,18 65,32 31,20 40,22 47,11 12,-17 29,-78 29,-100 0,-41 38,-7 69,62 41,90 22,213 -44,292 -15,18 -25,42 -25,62 0,47 -50,119 -106,152 -44,26 -147,55 -184,53 -8,-1 -40,-5 -70,-10 z m 131,-239 c 24,-13 27,-75 3,-84 -25,-10 -59,-7 -72,6 -19,19 -14,55 10,72 26,19 33,19 59,6 z"
       id="path2"
       style="fill:#fbfbfb;fill-opacity:1" />
    <path
       d="m 3437,3310 c -113,-19 -228,-100 -286,-201 l -26,-47 -24,19 c -65,52 -138,-7 -148,-119 -6,-66 9,-111 57,-170 17,-21 28,-45 25,-53 -3,-8 -22,-23 -43,-34 -38,-20 -322,-297 -322,-314 0,-6 19,-15 43,-21 232,-59 389,-116 557,-200 180,-90 316,-185 497,-347 76,-68 92,-79 98,-65 4,9 10,78 13,153 6,186 -13,280 -101,480 -16,36 -16,38 11,72 25,31 51,82 66,129 3,10 22,24 43,33 86,36 143,122 151,225 4,66 3,70 -26,99 -23,23 -40,31 -66,31 -34,0 -36,2 -47,46 -25,98 -116,201 -222,249 -45,21 -161,47 -192,44 -5,-1 -32,-5 -58,-9 z m -10,-311 c 23,-11 51,-34 60,-50 10,-16 20,-29 23,-29 3,0 21,11 40,25 156,115 340,-95 214,-245 -15,-17 -40,-38 -58,-47 -39,-20 -46,-30 -46,-73 -1,-73 -51,-145 -122,-175 -155,-64 -307,83 -259,252 8,28 6,34 -21,60 -76,71 -79,192 -6,260 50,47 109,54 175,22 z"
       id="path3"
       style="fill:#fbfbfb;fill-opacity:1" />
    <path
       d="m 3327,2872 c -25,-28 -21,-69 8,-88 23,-15 27,-15 50,0 17,11 25,26 25,46 0,53 -50,78 -83,42 z"
       id="path4"
       style="fill:#fbfbfb;fill-opacity:1" />
    <path
       d="m 3600,2830 c -11,-11 -20,-29 -20,-40 0,-22 33,-60 53,-60 27,0 57,31 57,60 0,18 -8,34 -22,44 -30,21 -44,20 -68,-4 z"
       id="path5"
       style="fill:#fbfbfb;fill-opacity:1" />
    <path
       d="m 3412,2679 c 2,-6 8,-10 13,-10 5,0 11,4 13,10 2,6 -4,11 -13,11 -9,0 -15,-5 -13,-11 z"
       id="path6"
       style="fill:#fbfbfb;fill-opacity:1" />
    <path
       d="m 3510,2670 c 0,-5 7,-10 15,-10 8,0 15,5 15,10 0,6 -7,10 -15,10 -8,0 -15,-4 -15,-10 z"
       id="path7"
       style="fill:#fbfbfb;fill-opacity:1" />
    <path
       d="m 3389,2526 c 33,-35 84,-43 130,-21 36,18 36,18 11,25 -14,4 -56,10 -95,14 l -69,7 z"
       id="path8"
       style="fill:#fbfbfb;fill-opacity:1" />
    <path
       d="M 1815,2329 C 1204,2267 787,2043 507,1627 403,1473 349,1343 295,1123 226,839 196,775 65,631 6,565 0,556 13,542 c 9,-8 38,-17 66,-20 74,-7 164,38 250,126 76,77 110,136 161,276 l 37,98 24,-83 C 586,819 584,648 547,455 517,304 503,123 514,47 l 7,-47 h 220 c 120,0 219,3 219,8 0,4 -21,34 -46,67 -44,57 -46,62 -41,112 5,52 69,203 86,203 5,0 27,-44 49,-99 23,-54 62,-142 86,-195 l 45,-96 h 230 c 144,0 232,4 236,10 11,17 -4,47 -65,129 -91,123 -94,131 -94,246 1,87 6,114 37,205 19,58 45,125 56,150 l 21,45 -5,-40 c -4,-22 -8,-47 -11,-56 -4,-14 8,-18 76,-24 117,-10 386,3 524,26 65,11 121,17 124,15 3,-3 -2,-95 -11,-203 -10,-109 -20,-267 -24,-351 L 2227,0 h 256 c 142,0 257,3 257,6 0,3 -14,38 -31,77 -25,56 -30,80 -27,118 19,199 369,581 554,606 58,7 135,-24 317,-129 182,-104 255,-136 382,-167 124,-31 170,-53 234,-115 78,-74 93,-80 183,-79 113,1 173,43 185,130 10,73 -15,148 -116,346 -177,348 -287,513 -483,727 -263,287 -454,442 -692,562 -229,115 -461,187 -756,233 -124,20 -538,28 -675,14 z m 1651,-670 c 47,-22 85,-67 115,-135 28,-63 21,-87 -11,-38 -53,81 -159,133 -178,87 -9,-22 -8,-95 2,-145 4,-20 25,-60 47,-88 22,-27 35,-50 29,-50 -18,0 -84,37 -102,57 -52,58 -74,185 -44,257 15,36 59,76 84,76 9,0 35,-9 58,-21 z m 497,-607 c 23,-20 22,-47 -3,-72 -27,-27 -65,-26 -84,2 -47,67 25,125 87,70 z"
       id="path9"
       style="fill:#fbfbfb;fill-opacity:1" />
    <path
       d="M 3202,710 C 3111,669 2965,542 2906,453 l -27,-40 49,-105 c 27,-57 78,-150 113,-206 L 3104,0 h 202 c 110,0 203,3 207,6 11,12 -20,71 -78,146 -107,140 -160,285 -172,471 -3,54 -9,99 -12,102 -4,2 -26,-5 -49,-15 z"
       id="path10"
       style="fill:#fbfbfb;fill-opacity:1" />
  </g>
</svg>
