<?xml version="1.0" encoding="UTF-8" standalone="no"?>
<!-- Created with Inkscape (http://www.inkscape.org/) -->

<svg
   width="495.15134"
   height="423.17801"
   viewBox="0 0 495.15134 423.17801"
   version="1.1"
   id="svg1"
   xml:space="preserve"
   sodipodi:docname="hugin&amp;munin.svg"
   xmlns:inkscape="http://www.inkscape.org/namespaces/inkscape"
   xmlns:sodipodi="http://sodipodi.sourceforge.net/DTD/sodipodi-0.dtd"
   xmlns="http://www.w3.org/2000/svg"
   xmlns:svg="http://www.w3.org/2000/svg"><sodipodi:namedview
     id="namedview1"
     pagecolor="#ffffff"
     bordercolor="#cccccc"
     borderopacity="1"
     inkscape:showpageshadow="0"
     inkscape:pageopacity="1"
     inkscape:pagecheckerboard="0"
     inkscape:deskcolor="#d1d1d1"><inkscape:page
       x="0"
       y="0"
       width="495.15134"
       height="423.17801"
       id="page2"
       margin="0"
       bleed="0" /></sodipodi:namedview><defs
     id="defs1" /><path
     style="fill:#000000"
     d="m 55.467331,416.97445 c -1.166653,-9.33757 0.06691,-23.82825 3.941143,-46.29683 4.222072,-24.48585 4.157063,-37.84526 -0.250155,-51.40657 l -2.665905,-8.20318 -3.073917,9.29693 c -4.678983,14.15139 -10.112116,23.70302 -18.113677,31.84444 -9.30304,9.46565 -16.877951,13.40423 -25.9361674,13.48551 -4.880705,0.0438 -7.2966433,-0.4407 -8.57814311,-1.72027 -1.6489851,-1.64649 -1.193677,-2.42872 6.01938311,-10.34152 14.2730384,-15.65765 15.9466214,-19.21987 24.3654944,-51.86202 7.759264,-30.08468 14.351101,-44.53781 29.454678,-64.58177 28.153414,-37.3624 66.183065,-58.10385 122.552915,-66.84061 21.29486,-3.30049 67.98874,-3.6131 87.27836,-0.58433 42.34463,6.64878 79.96513,20.59487 107.9073,40.00172 26.85386,18.65099 63.94528,57.66018 81.76191,85.98933 8.27819,13.16265 25.12666,44.55603 30.81787,57.42223 3.45018,7.79987 4.12587,10.55961 4.19617,17.13836 0.0678,6.3469 -0.35494,8.43155 -2.21806,10.93757 -4.01812,5.40464 -8.10384,7.03177 -17.81674,7.09547 -9.97142,0.0654 -12.90396,-1.2236 -20.35042,-8.94504 -5.79051,-6.00434 -10.74011,-8.41634 -24.88779,-12.12814 -15.70111,-4.11936 -23.22494,-7.43997 -43.99539,-19.41719 -25.39608,-14.64458 -30.28241,-15.62326 -44.08284,-8.82933 -13.71148,6.75014 -36.73662,31.8933 -44.90283,49.0333 -5.39094,11.31503 -5.6892,17.15433 -1.35942,26.6148 1.85235,4.04736 3.36792,7.61575 3.36792,7.92974 0,0.31399 -12.6273,0.57089 -28.06067,0.57089 h -28.06067 l 0.70179,-16.13291 c 0.38599,-8.8731 1.52015,-26.10847 2.52036,-38.30081 1.00021,-12.19234 1.51137,-22.47508 1.13592,-22.85053 -0.37545,-0.37546 -5.00155,0.17682 -10.28022,1.22728 -11.99563,2.38713 -41.96051,4.03038 -57.2722,3.14076 l -11.58064,-0.67284 0.98647,-5.42744 c 0.54255,-2.9851 0.7869,-5.62702 0.54298,-5.87094 -0.5632,-0.5632 -9.049,21.46734 -10.78979,28.01208 -0.72003,2.70705 -1.33968,9.59771 -1.37698,15.31259 -0.078,11.95099 0.44133,13.28033 10.34177,26.47091 7.11516,9.47969 8.56784,12.71084 6.3472,14.1179 -0.81633,0.51725 -12.46728,0.94799 -25.89099,0.9572 l -24.40676,0.0168 -4.24096,-9.17954 c -2.33253,-5.04875 -6.53439,-14.64646 -9.33746,-21.32826 -2.80307,-6.68179 -5.52015,-12.14871 -6.03796,-12.14871 -1.85356,0 -8.841457,16.44011 -9.417337,22.15575 -0.53178,5.27788 -0.27765,6.12739 3.18793,10.65695 2.07118,2.70705 4.353177,6.02933 5.071117,7.38286 l 1.30534,2.46095 H 80.264836 56.242406 Z M 432.09399,316.47463 c 6.29901,-4.41199 -1.6619,-14.00891 -8.11393,-9.78138 -2.98463,1.9556 -3.33286,5.54781 -0.87762,9.05316 1.9905,2.84183 5.56108,3.13102 8.99155,0.72822 z m -56.20973,-39.5508 c -2.16608,-2.83771 -4.40476,-6.38629 -4.97484,-7.88573 -1.25863,-3.31044 -1.61901,-16.6517 -0.49876,-18.46429 2.66075,-4.30519 13.78232,1.70394 19.32279,10.44035 2.847,4.48926 3.22866,4.76318 3.22866,2.31725 0,-1.52561 -1.53437,-5.84437 -3.4097,-9.59724 -3.65016,-7.30462 -9.43633,-12.49805 -15.37859,-13.80319 -6.8607,-1.50686 -12.92602,6.51809 -12.92896,17.10616 -0.003,10.6547 4.21575,18.80094 11.81489,22.81431 6.36332,3.36069 7.06741,2.63089 2.82451,-2.92762 z M 332.4206,413.06069 c -3.47694,-5.56449 -9.01585,-15.72377 -12.30867,-22.57618 l -5.98696,-12.45893 2.92298,-4.41692 c 6.64504,-10.04134 23.57684,-24.48015 33.55581,-28.61515 4.97561,-2.06176 4.78548,-2.45242 5.58001,11.46527 1.07412,18.81525 7.14244,35.06405 18.78995,50.31281 7.29621,9.5521 9.69085,14.34523 7.77563,15.56377 -0.69943,0.44499 -10.88714,0.81662 -22.63935,0.82583 l -21.36767,0.0168 z m 81.32289,-187.04314 c -32.04176,-29.78103 -66.37308,-48.54264 -109.56046,-59.87332 -6.65895,-1.74705 -12.36006,-3.42932 -12.66912,-3.73839 -1.63649,-1.63648 24.43398,-27.66661 34.21139,-34.15845 3.29253,-2.18611 5.98165,-4.52031 5.97581,-5.1871 -0.006,-0.66679 -1.70224,-3.34023 -3.76979,-5.94098 -4.91346,-6.18062 -6.47673,-11.18508 -5.73597,-18.362399 1.23488,-11.964787 9.26376,-18.194568 16.20506,-12.573848 l 2.556,2.069724 2.91419,-5.102548 c 16.64954,-29.152254 59.28699,-29.812798 78.2143,-1.211705 1.63013,2.463295 3.54969,6.790434 4.26568,9.615867 1.24897,4.9287 1.48762,5.16258 5.88156,5.76416 7.34448,1.00555 9.40215,3.927559 9.40215,13.351589 0,6.58784 -0.48232,8.71223 -2.91025,12.81843 -3.57172,6.04059 -7.80022,10.08863 -13.3136,12.74542 -3.45159,1.66326 -4.64886,3.1582 -6.77469,8.45902 -1.42019,3.54129 -3.89878,7.81296 -5.50797,9.4926 l -2.9258,3.05388 4.35839,10.19502 c 7.3279,17.14124 8.48005,23.05881 8.48005,43.55461 0,10.10573 -0.48129,18.83668 -1.09375,19.84161 -0.93893,1.54059 -2.10013,0.85926 -8.20318,-4.81319 z m -23.15274,-68.29371 c 4.79775,-3.81475 8.9339,-11.43487 8.9339,-16.45911 0,-2.41364 0.82709,-4.34703 2.46095,-5.75265 9.28796,-7.99048 11.62762,-10.75909 12.81334,-15.1625 2.36086,-8.76756 -1.36323,-17.10155 -9.375,-20.979979 -6.2184,-3.01028 -11.97518,-2.43015 -18.11627,1.825629 -4.21328,2.91981 -4.4503,2.96131 -5.56247,0.97397 -5.1934,-9.280089 -18.11672,-11.91861 -25.97791,-5.303849 -4.68649,3.943419 -6.55546,8.103579 -6.55546,14.591909 0,6.34709 1.64644,10.11606 6.38803,14.62326 2.78095,2.64348 3.14157,3.5609 2.28516,5.81343 -2.82587,7.43258 -0.14692,18.6878 5.71265,24.0009 5.24334,4.75434 8.76255,5.95431 16.05551,5.47456 5.6,-0.36838 7.69347,-1.06615 10.93757,-3.64557 z m -16.76939,-7.92533 c -1.20313,-0.49243 -3.14659,-1.96153 -4.31881,-3.26466 l -2.1313,-2.36932 7.60008,0.77315 c 4.18005,0.42523 8.83057,1.10481 10.33448,1.51017 l 2.73439,0.73703 -3.50039,1.82381 c -3.76514,1.96175 -7.23113,2.21715 -10.71845,0.78982 z m -0.9412,-18.31878 c -1.23177,-1.23177 -0.75019,-2.52236 0.9412,-2.52236 0.90235,0 1.64064,0.46314 1.64064,1.0292 0,1.37921 -1.708,2.367 -2.58184,1.49316 z m 10.23814,-0.33485 c 0,-0.60157 0.73828,-1.09376 1.64063,-1.09376 0.90235,0 1.64064,0.49219 1.64064,1.09376 0,0.60157 -0.73829,1.09376 -1.64064,1.09376 -0.90235,0 -1.64063,-0.49219 -1.64063,-1.09376 z m 11.14032,-7.31048 c -2.24893,-0.8997 -3.56047,-5.47113 -2.42585,-8.4554 1.34416,-3.53542 4.92947,-4.55001 8.29231,-2.3466 6.12771,4.01503 0.95885,13.53253 -5.86646,10.802 z m -30.58458,-5.32974 c -4.43037,-3.10316 -2.01281,-11.42243 3.31934,-11.42243 5.0574,0 7.08262,8.39227 2.75647,11.42243 -1.33699,0.93646 -2.70404,1.70265 -3.03791,1.70265 -0.33386,0 -1.70091,-0.76619 -3.0379,-1.70265 z M 81.654751,193.06858 c 0.393485,-3.84065 2.430217,-16.2098 4.52607,-27.48702 5.228558,-28.13345 4.936156,-39.29249 -1.203166,-45.91693 -4.538127,-4.89672 -7.235435,-4.67892 -19.191205,1.54961 -13.263829,6.90999 -19.075235,7.92729 -26.506621,4.64003 -4.08089,-1.80517 -5.572027,-3.23497 -7.265805,-6.96696 -1.17213,-2.58261 -2.141956,-6.20319 -2.155167,-8.04574 -0.01617,-2.2554 -1.070241,-4.35242 -3.225821,-6.41759 -1.76099,-1.68714 -3.795553,-4.609319 -4.521251,-6.493739 C 21.386086,96.045831 19.065048,90.91182 16.953923,86.521343 12.209871,76.655205 12.041916,77.069283 27.267345,61.094581 33.374804,54.686562 39.470109,47.277462 40.812468,44.629914 45.039115,36.293654 49.609177,30.774755 55.955853,26.342459 70.518724,16.17226 82.470255,12.420632 105.62793,10.750215 120.17,9.701262 120.90421,9.529912 125.86244,6.027871 c 9.49013,-6.70297294 16.66536,-7.8029458 21.9412,-3.363617 3.7075,3.119647 5.12556,6.894589 6.10104,16.241169 0.63959,6.128289 1.04021,6.828026 8.45379,14.765716 9.41952,10.085454 18.3611,20.982199 25.79498,31.43532 l 5.54008,7.79016 -5.35399,11.633898 c -2.9447,6.398644 -7.11641,16.674403 -9.27048,22.835033 -4.17799,11.94901 -12.05071,41.96457 -13.19335,50.30099 l -0.68928,5.02886 -7.79261,1.88825 c -23.94188,5.80142 -49.82896,17.11452 -66.10555,28.88925 -5.001636,3.61826 -9.376273,6.57866 -9.721415,6.57866 -0.345142,0 -0.305589,-3.14234 0.0879,-6.98298 z m 73.957559,-57.37584 c 3.71878,-3.71878 6.12154,-11.55407 4.74833,-15.48412 -3.15308,-9.02397 -18.1091,2.93559 -16.22572,12.97488 0.99968,5.32872 1.26036,5.61768 5.0681,5.61768 2.16849,0 4.36721,-1.06636 6.40929,-3.10844 z m -6.60261,-33.6627 c 4.31398,-3.629969 6.60717,-8.045389 6.60717,-12.721727 0,-7.425668 -5.47602,-8.414589 -12.11101,-2.187142 -4.60144,4.3188 -6.32373,9.52573 -4.95486,14.979779 0.95716,3.8136 5.8819,3.78021 10.4587,-0.0709 z M 30.353626,89.63644 c 3.037074,-5.873052 1.807835,-7.121172 -3.162738,-3.211319 -2.794134,2.197865 -2.846945,2.413449 -1.071741,4.375027 2.372933,2.622063 2.260854,2.652863 4.234479,-1.163708 z M 73.087948,54.084745 c 3.049563,-3.049563 3.519953,-6.907265 0.961932,-7.888869 -2.318821,-0.889815 -10.275734,1.575881 -10.438173,3.234591 -0.277219,2.830761 0.352026,4.659402 2.054914,5.971757 2.606999,2.009124 4.41584,1.688008 7.421327,-1.317479 z M 175.97601,157.25832 c 1.69058,-9.29345 9.42821,-38.69553 12.39657,-47.10552 7.01134,-19.864616 16.50782,-37.721182 28.23388,-53.089147 4.86949,-6.381879 8.36707,-12.507878 11.25543,-19.713854 8.20098,-20.460144 16.4498,-28.698397 34.72068,-34.67623 6.61281,-2.16356714 18.38411,-2.52018114 24.84882,-0.7528 6.34319,1.73416 14.03813,6.955743 16.77392,11.382341 1.30207,2.106798 2.79766,6.133582 3.32353,8.948409 0.52586,2.814827 1.96797,6.195731 3.20468,7.51312 7.15838,7.625371 8.92978,22.219826 3.91771,32.277736 -1.56291,3.136353 -3.68587,6.154272 -4.7177,6.706486 -1.62038,0.867203 -2.05753,0.125314 -3.20787,-5.44409 -0.73251,-3.546464 -1.79155,-6.732232 -2.35341,-7.079484 -0.56187,-0.347252 -2.88453,0.587542 -5.16148,2.077321 -2.27694,1.489779 -5.42913,3.021965 -7.00487,3.404858 l -2.86496,0.696168 3.95872,7.714939 c 3.95599,7.709605 3.95872,7.724858 3.95872,22.065858 0,12.269619 -0.37929,15.461309 -2.61532,22.007219 -4.79971,14.05103 -13.71265,29.66684 -23.39417,40.98749 l -3.04061,3.55539 -13.65985,-1.21662 c -7.51291,-0.66914 -16.84979,-1.21662 -20.7486,-1.21662 -3.89882,0 -7.08876,-0.38596 -7.08876,-0.85768 0,-0.47173 2.74311,-3.54792 6.0958,-6.83598 12.12406,-11.89035 22.08652,-27.86363 26.19683,-42.0026 2.27254,-7.817279 1.76749,-19.02401 -1.13685,-25.226082 l -2.04877,-4.375027 -0.76615,10.937568 c -0.42138,6.015662 -1.28544,12.570431 -1.92014,14.566151 -1.94904,6.12852 -9.84945,19.91663 -15.43154,26.93174 -5.64808,7.09804 -22.04366,23.29365 -26.41168,26.08955 -1.62691,1.04136 -7.64894,2.12774 -15.84307,2.85812 -7.27022,0.64802 -14.77613,1.48973 -16.67979,1.87046 -3.4283,0.68566 -3.45483,0.65713 -2.7897,-2.99919 z M 284.97112,33.899848 c 1.42083,-5.43326 -3.90105,-9.225055 -8.61371,-6.137199 -5.63896,3.694788 -0.53226,11.908885 5.65197,9.091162 1.36697,-0.622833 2.69975,-1.952117 2.96174,-2.953963 z"
     id="path1" /></svg>
