<svg xmlns="http://www.w3.org/2000/svg" xmlns:xlink="http://www.w3.org/1999/xlink" width="500" zoomAndPan="magnify" viewBox="0 0 375 187.499995" height="250" preserveAspectRatio="xMidYMid meet" version="1.2"><defs><clipPath id="89dcc2b1c4"><path d="M 5 39.6875 L 51 39.6875 L 51 91 L 5 91 Z M 5 39.6875 "/></clipPath><clipPath id="d83d2b8962"><path d="M 46 39.6875 L 83 39.6875 L 83 81 L 46 81 Z M 46 39.6875 "/></clipPath><clipPath id="0f51dd3267"><path d="M 1.640625 82 L 128 82 L 128 147.523438 L 1.640625 147.523438 Z M 1.640625 82 "/></clipPath><clipPath id="035fdc8a7d"><path d="M 81 127 L 100 127 L 100 147.523438 L 81 147.523438 Z M 81 127 "/></clipPath></defs><g id="401eff3a3d"><g clip-rule="nonzero" clip-path="url(#89dcc2b1c4)"><path style=" stroke:none;fill-rule:nonzero;fill:#659400;fill-opacity:1;" d="M 35.824219 39.976562 C 35.40625 40.113281 34.460938 40.640625 33.738281 41.167969 C 32.40625 42.113281 32.292969 42.144531 28.375 42.449219 C 23.648438 42.808594 21.007812 43.476562 18.007812 45.0625 C 15.28125 46.507812 13.53125 48.175781 12.308594 50.539062 C 11.722656 51.648438 10.445312 53.316406 8.945312 54.847656 C 4.773438 59.183594 4.550781 59.597656 5.582031 61.074219 C 5.886719 61.488281 6.441406 62.628906 6.859375 63.65625 C 7.25 64.65625 7.945312 65.824219 8.417969 66.242188 C 8.945312 66.796875 9.222656 67.328125 9.222656 67.882812 C 9.222656 68.355469 9.472656 69.273438 9.777344 69.941406 C 10.835938 72.300781 13.949219 72.832031 17.089844 71.21875 C 21.035156 69.160156 21.175781 69.105469 21.898438 69.273438 C 22.925781 69.550781 23.816406 70.632812 24.234375 72.078125 C 24.703125 73.804688 24.484375 76.917969 23.425781 82.390625 C 22.566406 87.0625 22.09375 90.566406 22.371094 90.566406 C 22.453125 90.566406 23.566406 89.8125 24.84375 88.898438 C 29.347656 85.644531 36.15625 82.78125 42.882812 81.28125 C 43.523438 81.140625 43.664062 80.917969 43.828125 79.808594 C 44.191406 77.390625 46.21875 69.660156 47.304688 66.660156 C 47.859375 65.046875 48.914062 62.488281 49.609375 60.960938 L 50.890625 58.210938 L 49.890625 56.792969 C 48.054688 54.289062 44.914062 50.425781 42.941406 48.3125 C 41.050781 46.3125 40.964844 46.117188 40.773438 44.5625 C 40.492188 42.144531 40.132812 41.199219 39.214844 40.390625 C 38.324219 39.667969 37.296875 39.53125 35.824219 39.976562 Z M 20.757812 51.675781 C 21.089844 52.175781 20.617188 53.289062 19.894531 53.761719 C 18.894531 54.429688 17.839844 53.929688 17.839844 52.789062 C 17.839844 52.148438 18.007812 51.898438 18.617188 51.703125 C 19.617188 51.316406 20.535156 51.316406 20.757812 51.675781 Z M 40.855469 61.15625 C 41.300781 61.601562 41.273438 63.183594 40.773438 64.128906 C 40.1875 65.296875 38.769531 66.382812 37.851562 66.382812 C 37.019531 66.382812 36.742188 65.964844 36.742188 64.6875 C 36.742188 62.40625 39.632812 59.933594 40.855469 61.15625 Z M 9.777344 61.378906 C 9.777344 61.542969 9.582031 62.074219 9.332031 62.519531 C 8.917969 63.351562 8.886719 63.351562 8.332031 62.878906 C 7.777344 62.351562 7.777344 62.351562 8.527344 61.738281 C 9.304688 61.042969 9.777344 60.933594 9.777344 61.378906 Z M 42.355469 70.328125 C 42.71875 71.386719 42.132812 73.246094 41.160156 74.21875 C 40.550781 74.859375 40.160156 75.027344 39.464844 74.941406 C 38.6875 74.859375 38.546875 74.71875 38.324219 73.804688 C 37.992188 72.46875 38.4375 71.386719 39.714844 70.246094 C 40.9375 69.1875 41.996094 69.214844 42.355469 70.328125 Z M 42.355469 70.328125 "/></g><g clip-rule="nonzero" clip-path="url(#d83d2b8962)"><path style=" stroke:none;fill-rule:nonzero;fill:#659400;fill-opacity:1;" d="M 69.820312 40.003906 C 68.011719 40.308594 65.175781 41.585938 63.703125 42.753906 C 62.203125 43.921875 60.5625 46.480469 59.535156 49.230469 C 58.949219 50.757812 58.089844 52.289062 57.003906 53.761719 C 53.585938 58.238281 50.777344 63.683594 48.972656 69.300781 C 48.222656 71.71875 46.191406 79.695312 46.191406 80.390625 C 46.191406 80.53125 46.582031 80.558594 47.082031 80.445312 C 47.582031 80.363281 49.472656 80.140625 51.335938 79.972656 C 53.445312 79.808594 54.921875 79.53125 55.335938 79.25 C 56.476562 78.5 60.644531 74.386719 62.007812 72.636719 C 65.148438 68.660156 66.234375 66.105469 66.484375 62.210938 L 66.648438 59.292969 L 67.152344 60.40625 C 67.902344 62.046875 68.039062 64.824219 67.457031 66.796875 C 66.429688 70.410156 63.898438 74.46875 60.8125 77.5 C 59.953125 78.335938 59.257812 79.085938 59.257812 79.195312 C 59.257812 79.277344 60.785156 79.445312 62.675781 79.53125 C 64.539062 79.640625 66.957031 79.808594 68.011719 79.890625 L 69.957031 80.058594 L 71.847656 77.527344 C 73.933594 74.71875 75.546875 71.71875 76.546875 68.746094 C 77.074219 67.105469 77.183594 66.214844 77.183594 63.15625 C 77.183594 59.515625 77.183594 59.515625 76.183594 57.542969 L 75.183594 55.597656 L 75.90625 55.402344 C 76.296875 55.320312 77.101562 54.902344 77.714844 54.511719 C 78.574219 53.957031 78.824219 53.902344 79.019531 54.207031 C 79.351562 54.679688 79.824219 56.375 79.824219 56.984375 C 79.824219 58.125 80.882812 57.179688 81.742188 55.261719 C 82.882812 52.761719 82.355469 49.34375 80.519531 47.144531 C 80.105469 46.644531 79.824219 45.980469 79.824219 45.421875 C 79.824219 44.117188 78.4375 42.113281 76.878906 41.199219 C 75.65625 40.476562 72.792969 39.667969 71.765625 39.722656 C 71.542969 39.753906 70.652344 39.863281 69.820312 40.003906 Z M 73.460938 46.644531 C 74.128906 47.007812 74.210938 48.730469 73.542969 48.980469 C 72.847656 49.257812 71.902344 49.175781 71.542969 48.8125 C 71.015625 48.285156 71.152344 47.285156 71.820312 46.8125 C 72.542969 46.285156 72.738281 46.285156 73.460938 46.644531 Z M 73.460938 46.644531 "/></g><path style=" stroke:none;fill-rule:nonzero;fill:#659400;fill-opacity:1;" d="M 96.976562 55.261719 C 93.835938 55.789062 90.640625 58.042969 89.027344 60.851562 L 88.304688 62.15625 L 87.636719 61.628906 C 85.828125 60.183594 83.800781 61.824219 83.523438 64.9375 C 83.355469 66.769531 83.773438 68.023438 85.105469 69.660156 C 85.578125 70.246094 85.886719 70.914062 85.800781 71.132812 C 85.71875 71.355469 85.191406 71.773438 84.605469 72.078125 C 83.550781 72.636719 75.65625 80.335938 75.65625 80.808594 C 75.65625 80.976562 76.183594 81.226562 76.851562 81.390625 C 83.300781 83.03125 87.664062 84.617188 92.335938 86.949219 C 97.335938 89.453125 101.117188 92.09375 106.148438 96.597656 C 108.261719 98.488281 108.707031 98.792969 108.875 98.402344 C 108.984375 98.152344 109.152344 96.234375 109.234375 94.152344 C 109.402344 88.980469 108.875 86.367188 106.425781 80.808594 C 105.984375 79.808594 105.984375 79.75 106.734375 78.808594 C 107.429688 77.945312 108.152344 76.527344 108.566406 75.222656 C 108.652344 74.941406 109.179688 74.554688 109.761719 74.304688 C 112.152344 73.304688 113.738281 70.914062 113.960938 68.050781 C 114.070312 66.214844 114.042969 66.105469 113.238281 65.296875 C 112.597656 64.65625 112.125 64.4375 111.402344 64.4375 C 110.457031 64.4375 110.402344 64.378906 110.097656 63.15625 C 109.402344 60.433594 106.871094 57.570312 103.925781 56.234375 C 102.675781 55.652344 99.449219 54.929688 98.589844 55.011719 C 98.449219 55.039062 97.699219 55.152344 96.976562 55.261719 Z M 96.699219 63.90625 C 97.335938 64.214844 98.117188 64.851562 98.367188 65.296875 C 98.644531 65.742188 98.921875 66.105469 99.003906 66.105469 C 99.089844 66.105469 99.589844 65.796875 100.117188 65.410156 C 104.453125 62.210938 109.570312 68.050781 106.066406 72.21875 C 105.648438 72.691406 104.953125 73.273438 104.453125 73.523438 C 103.371094 74.082031 103.175781 74.359375 103.175781 75.554688 C 103.148438 77.582031 101.757812 79.585938 99.785156 80.417969 C 95.476562 82.199219 91.25 78.113281 92.585938 73.414062 C 92.808594 72.636719 92.75 72.46875 92 71.746094 C 89.886719 69.773438 89.804688 66.410156 91.835938 64.519531 C 93.222656 63.210938 94.863281 63.019531 96.699219 63.90625 Z M 96.699219 63.90625 "/><path style=" stroke:none;fill-rule:nonzero;fill:#659400;fill-opacity:1;" d="M 93.917969 67.4375 C 93.222656 68.214844 93.335938 69.355469 94.140625 69.882812 C 94.78125 70.300781 94.890625 70.300781 95.53125 69.882812 C 96.003906 69.578125 96.226562 69.160156 96.226562 68.605469 C 96.226562 67.132812 94.835938 66.4375 93.917969 67.4375 Z M 93.917969 67.4375 "/><path style=" stroke:none;fill-rule:nonzero;fill:#659400;fill-opacity:1;" d="M 101.507812 68.605469 C 101.203125 68.910156 100.953125 69.410156 100.953125 69.71875 C 100.953125 70.328125 101.867188 71.386719 102.425781 71.386719 C 103.175781 71.386719 104.007812 70.523438 104.007812 69.71875 C 104.007812 69.214844 103.785156 68.773438 103.398438 68.492188 C 102.5625 67.910156 102.175781 67.9375 101.507812 68.605469 Z M 101.507812 68.605469 "/><path style=" stroke:none;fill-rule:nonzero;fill:#659400;fill-opacity:1;" d="M 96.28125 72.800781 C 96.335938 72.96875 96.503906 73.082031 96.644531 73.082031 C 96.78125 73.082031 96.949219 72.96875 97.003906 72.800781 C 97.058594 72.636719 96.894531 72.496094 96.644531 72.496094 C 96.394531 72.496094 96.226562 72.636719 96.28125 72.800781 Z M 96.28125 72.800781 "/><path style=" stroke:none;fill-rule:nonzero;fill:#659400;fill-opacity:1;" d="M 99.003906 73.054688 C 99.003906 73.191406 99.199219 73.332031 99.421875 73.332031 C 99.644531 73.332031 99.839844 73.191406 99.839844 73.054688 C 99.839844 72.886719 99.644531 72.773438 99.421875 72.773438 C 99.199219 72.773438 99.003906 72.886719 99.003906 73.054688 Z M 99.003906 73.054688 "/><path style=" stroke:none;fill-rule:nonzero;fill:#659400;fill-opacity:1;" d="M 95.640625 77.054688 C 96.558594 78.027344 97.976562 78.25 99.253906 77.640625 C 100.257812 77.140625 100.257812 77.140625 99.5625 76.945312 C 99.171875 76.832031 98.003906 76.667969 96.921875 76.554688 L 95.003906 76.359375 Z M 95.640625 77.054688 "/><g clip-rule="nonzero" clip-path="url(#0f51dd3267)"><path style=" stroke:none;fill-rule:nonzero;fill:#659400;fill-opacity:1;" d="M 51.890625 82.53125 C 34.90625 84.253906 23.316406 90.480469 15.53125 102.042969 C 12.640625 106.324219 11.140625 109.9375 9.640625 116.054688 C 7.722656 123.949219 6.886719 125.726562 3.246094 129.730469 C 1.605469 131.566406 1.4375 131.816406 1.800781 132.203125 C 2.050781 132.425781 2.855469 132.675781 3.636719 132.761719 C 5.691406 132.953125 8.195312 131.703125 10.585938 129.257812 C 12.695312 127.117188 13.640625 125.476562 15.058594 121.585938 L 16.089844 118.863281 L 16.753906 121.167969 C 17.726562 124.503906 17.671875 129.257812 16.644531 134.621094 C 15.808594 138.820312 15.421875 143.851562 15.726562 145.964844 L 15.921875 147.269531 L 22.035156 147.269531 C 25.371094 147.269531 28.125 147.1875 28.125 147.046875 C 28.125 146.9375 27.539062 146.101562 26.84375 145.183594 C 25.621094 143.601562 25.566406 143.460938 25.707031 142.070312 C 25.84375 140.625 27.625 136.429688 28.097656 136.429688 C 28.234375 136.429688 28.847656 137.652344 29.457031 139.179688 C 30.097656 140.683594 31.179688 143.128906 31.847656 144.601562 L 33.097656 147.269531 L 39.492188 147.269531 C 43.496094 147.269531 45.941406 147.160156 46.054688 146.992188 C 46.359375 146.519531 45.941406 145.6875 44.246094 143.40625 C 41.714844 139.988281 41.632812 139.765625 41.632812 136.566406 C 41.660156 134.148438 41.800781 133.398438 42.660156 130.871094 C 43.191406 129.257812 43.914062 127.394531 44.21875 126.699219 L 44.800781 125.449219 L 44.664062 126.5625 C 44.550781 127.171875 44.441406 127.867188 44.355469 128.117188 C 44.246094 128.507812 44.578125 128.617188 46.46875 128.785156 C 49.722656 129.0625 57.199219 128.703125 61.035156 128.0625 C 62.84375 127.757812 64.398438 127.589844 64.480469 127.644531 C 64.566406 127.730469 64.425781 130.285156 64.175781 133.289062 C 63.898438 136.316406 63.621094 140.710938 63.507812 143.046875 L 63.34375 147.269531 L 70.457031 147.269531 C 74.40625 147.269531 77.601562 147.1875 77.601562 147.101562 C 77.601562 147.019531 77.214844 146.046875 76.742188 144.964844 C 76.046875 143.40625 75.90625 142.738281 75.988281 141.683594 C 76.519531 136.152344 86.246094 125.53125 91.390625 124.839844 C 93 124.644531 95.140625 125.503906 100.199219 128.425781 C 105.261719 131.316406 107.289062 132.203125 110.820312 133.066406 C 114.265625 133.925781 115.542969 134.539062 117.324219 136.261719 C 119.492188 138.320312 119.910156 138.484375 122.410156 138.457031 C 125.550781 138.429688 127.21875 137.261719 127.554688 134.84375 C 127.832031 132.816406 127.136719 130.730469 124.328125 125.226562 C 119.410156 115.554688 116.351562 110.96875 110.902344 105.019531 C 103.59375 97.042969 98.28125 92.734375 91.667969 89.398438 C 85.300781 86.199219 78.851562 84.199219 70.652344 82.921875 C 67.207031 82.363281 55.699219 82.140625 51.890625 82.53125 Z M 97.78125 101.15625 C 99.089844 101.765625 100.144531 103.019531 100.980469 104.90625 C 101.757812 106.660156 101.5625 107.324219 100.671875 105.964844 C 99.199219 103.710938 96.253906 102.265625 95.726562 103.546875 C 95.476562 104.15625 95.503906 106.1875 95.78125 107.578125 C 95.890625 108.132812 96.476562 109.242188 97.085938 110.023438 C 97.699219 110.773438 98.0625 111.414062 97.894531 111.414062 C 97.394531 111.414062 95.558594 110.382812 95.058594 109.828125 C 93.613281 108.214844 93 104.683594 93.835938 102.683594 C 94.253906 101.683594 95.476562 100.570312 96.171875 100.570312 C 96.421875 100.570312 97.144531 100.820312 97.78125 101.15625 Z M 111.597656 118.027344 C 112.238281 118.582031 112.210938 119.335938 111.515625 120.027344 C 110.765625 120.78125 109.707031 120.753906 109.179688 119.972656 C 107.871094 118.109375 109.875 116.5 111.597656 118.027344 Z M 111.597656 118.027344 "/></g><g clip-rule="nonzero" clip-path="url(#035fdc8a7d)"><path style=" stroke:none;fill-rule:nonzero;fill:#659400;fill-opacity:1;" d="M 90.445312 127.535156 C 87.914062 128.675781 83.855469 132.203125 82.214844 134.679688 L 81.464844 135.789062 L 82.828125 138.707031 C 83.578125 140.292969 84.996094 142.878906 85.96875 144.433594 L 87.71875 147.269531 L 93.335938 147.269531 C 96.394531 147.269531 98.976562 147.1875 99.089844 147.101562 C 99.394531 146.769531 98.53125 145.128906 96.921875 143.046875 C 93.945312 139.152344 92.472656 135.121094 92.140625 129.953125 C 92.054688 128.453125 91.890625 127.199219 91.804688 127.117188 C 91.695312 127.0625 91.082031 127.257812 90.445312 127.535156 Z M 90.445312 127.535156 "/></g><g style="fill:#0c0f0a;fill-opacity:1;"><g transform="translate(164.59689, 76.706815)"><path style="stroke:none" d="M 34.171875 -33 L 34.171875 0 L 26.546875 0 L 26.546875 -13.53125 L 11.546875 -13.53125 L 11.546875 0 L 3.90625 0 L 3.90625 -33 L 11.546875 -33 L 11.546875 -19.984375 L 26.546875 -19.984375 L 26.546875 -33 Z M 34.171875 -33 "/></g></g><g style="fill:#0c0f0a;fill-opacity:1;"><g transform="translate(202.682716, 76.706815)"><path style="stroke:none" d="M 28.9375 -25.359375 L 28.9375 0 L 21.96875 0 L 21.96875 -3.015625 C 20.988281 -1.910156 19.820312 -1.066406 18.46875 -0.484375 C 17.125 0.0859375 15.664062 0.375 14.09375 0.375 C 10.757812 0.375 8.117188 -0.582031 6.171875 -2.5 C 4.222656 -4.414062 3.25 -7.257812 3.25 -11.03125 L 3.25 -25.359375 L 10.609375 -25.359375 L 10.609375 -12.109375 C 10.609375 -8.023438 12.320312 -5.984375 15.75 -5.984375 C 17.507812 -5.984375 18.921875 -6.554688 19.984375 -7.703125 C 21.054688 -8.847656 21.59375 -10.554688 21.59375 -12.828125 L 21.59375 -25.359375 Z M 28.9375 -25.359375 "/></g></g><g style="fill:#0c0f0a;fill-opacity:1;"><g transform="translate(235.065104, 76.706815)"><path style="stroke:none" d="M 29.5625 -25.359375 L 29.5625 -4.25 C 29.5625 0.40625 28.347656 3.863281 25.921875 6.125 C 23.503906 8.382812 19.972656 9.515625 15.328125 9.515625 C 12.867188 9.515625 10.539062 9.21875 8.34375 8.625 C 6.144531 8.03125 4.320312 7.164062 2.875 6.03125 L 5.796875 0.75 C 6.867188 1.632812 8.21875 2.332031 9.84375 2.84375 C 11.476562 3.363281 13.113281 3.625 14.75 3.625 C 17.300781 3.625 19.179688 3.050781 20.390625 1.90625 C 21.597656 0.757812 22.203125 -0.972656 22.203125 -3.296875 L 22.203125 -4.390625 C 20.285156 -2.273438 17.613281 -1.21875 14.1875 -1.21875 C 11.863281 -1.21875 9.734375 -1.726562 7.796875 -2.75 C 5.867188 -3.78125 4.335938 -5.222656 3.203125 -7.078125 C 2.078125 -8.929688 1.515625 -11.066406 1.515625 -13.484375 C 1.515625 -15.898438 2.078125 -18.035156 3.203125 -19.890625 C 4.335938 -21.742188 5.867188 -23.179688 7.796875 -24.203125 C 9.734375 -25.222656 11.863281 -25.734375 14.1875 -25.734375 C 17.863281 -25.734375 20.660156 -24.523438 22.578125 -22.109375 L 22.578125 -25.359375 Z M 15.65625 -7.265625 C 17.601562 -7.265625 19.195312 -7.835938 20.4375 -8.984375 C 21.675781 -10.128906 22.296875 -11.628906 22.296875 -13.484375 C 22.296875 -15.335938 21.675781 -16.835938 20.4375 -17.984375 C 19.195312 -19.128906 17.601562 -19.703125 15.65625 -19.703125 C 13.707031 -19.703125 12.101562 -19.128906 10.84375 -17.984375 C 9.582031 -16.835938 8.953125 -15.335938 8.953125 -13.484375 C 8.953125 -11.628906 9.582031 -10.128906 10.84375 -8.984375 C 12.101562 -7.835938 13.707031 -7.265625 15.65625 -7.265625 Z M 15.65625 -7.265625 "/></g></g><g style="fill:#0c0f0a;fill-opacity:1;"><g transform="translate(268.060248, 76.706815)"><path style="stroke:none" d="M 3.390625 -25.359375 L 10.75 -25.359375 L 10.75 0 L 3.390625 0 Z M 7.078125 -28.890625 C 5.722656 -28.890625 4.617188 -29.28125 3.765625 -30.0625 C 2.921875 -30.851562 2.5 -31.832031 2.5 -33 C 2.5 -34.164062 2.921875 -35.140625 3.765625 -35.921875 C 4.617188 -36.703125 5.722656 -37.09375 7.078125 -37.09375 C 8.429688 -37.09375 9.53125 -36.71875 10.375 -35.96875 C 11.226562 -35.21875 11.65625 -34.273438 11.65625 -33.140625 C 11.65625 -31.910156 11.226562 -30.894531 10.375 -30.09375 C 9.53125 -29.289062 8.429688 -28.890625 7.078125 -28.890625 Z M 7.078125 -28.890625 "/></g></g><g style="fill:#0c0f0a;fill-opacity:1;"><g transform="translate(282.248165, 76.706815)"><path style="stroke:none" d="M 18.8125 -25.734375 C 21.945312 -25.734375 24.484375 -24.789062 26.421875 -22.90625 C 28.359375 -21.019531 29.328125 -18.222656 29.328125 -14.515625 L 29.328125 0 L 21.96875 0 L 21.96875 -13.390625 C 21.96875 -15.398438 21.523438 -16.898438 20.640625 -17.890625 C 19.765625 -18.878906 18.492188 -19.375 16.828125 -19.375 C 14.972656 -19.375 13.492188 -18.800781 12.390625 -17.65625 C 11.296875 -16.507812 10.75 -14.804688 10.75 -12.546875 L 10.75 0 L 3.390625 0 L 3.390625 -25.359375 L 10.421875 -25.359375 L 10.421875 -22.390625 C 11.390625 -23.460938 12.597656 -24.285156 14.046875 -24.859375 C 15.492188 -25.441406 17.082031 -25.734375 18.8125 -25.734375 Z M 18.8125 -25.734375 "/></g></g><g style="fill:#0c0f0a;fill-opacity:1;"><g transform="translate(314.819088, 76.706815)"><path style="stroke:none" d=""/></g></g><g style="fill:#0c0f0a;fill-opacity:1;"><g transform="translate(328.158549, 76.706815)"><path style="stroke:none" d="M 29.28125 0.5625 L 25.3125 -3.109375 C 22.164062 -0.660156 18.488281 0.5625 14.28125 0.5625 C 11.894531 0.5625 9.742188 0.175781 7.828125 -0.59375 C 5.910156 -1.363281 4.410156 -2.4375 3.328125 -3.8125 C 2.242188 -5.195312 1.703125 -6.753906 1.703125 -8.484375 C 1.703125 -10.523438 2.273438 -12.320312 3.421875 -13.875 C 4.566406 -15.4375 6.410156 -16.925781 8.953125 -18.34375 C 7.765625 -19.5625 6.898438 -20.726562 6.359375 -21.84375 C 5.828125 -22.957031 5.5625 -24.113281 5.5625 -25.3125 C 5.5625 -26.914062 5.984375 -28.328125 6.828125 -29.546875 C 7.679688 -30.773438 8.882812 -31.726562 10.4375 -32.40625 C 12 -33.082031 13.800781 -33.421875 15.84375 -33.421875 C 18.695312 -33.421875 20.988281 -32.738281 22.71875 -31.375 C 24.445312 -30.007812 25.3125 -28.160156 25.3125 -25.828125 C 25.3125 -24.128906 24.800781 -22.617188 23.78125 -21.296875 C 22.757812 -19.984375 21.117188 -18.710938 18.859375 -17.484375 L 24.890625 -11.875 C 25.609375 -13.382812 26.160156 -15.097656 26.546875 -17.015625 L 32.4375 -15.171875 C 31.800781 -12.253906 30.796875 -9.757812 29.421875 -7.6875 L 33.28125 -4.09375 Z M 15.84375 -28.421875 C 14.738281 -28.421875 13.863281 -28.140625 13.21875 -27.578125 C 12.570312 -27.015625 12.25 -26.289062 12.25 -25.40625 C 12.25 -24.75 12.421875 -24.128906 12.765625 -23.546875 C 13.117188 -22.960938 13.796875 -22.1875 14.796875 -21.21875 C 16.398438 -22.0625 17.515625 -22.820312 18.140625 -23.5 C 18.773438 -24.175781 19.09375 -24.90625 19.09375 -25.6875 C 19.09375 -26.507812 18.804688 -27.171875 18.234375 -27.671875 C 17.671875 -28.171875 16.875 -28.421875 15.84375 -28.421875 Z M 14.796875 -5.1875 C 17.097656 -5.1875 19.160156 -5.832031 20.984375 -7.125 L 13.015625 -14.5625 C 11.535156 -13.71875 10.476562 -12.882812 9.84375 -12.0625 C 9.21875 -11.25 8.90625 -10.320312 8.90625 -9.28125 C 8.90625 -8.0625 9.4375 -7.070312 10.5 -6.3125 C 11.570312 -5.5625 13.003906 -5.1875 14.796875 -5.1875 Z M 14.796875 -5.1875 "/></g></g><g style="fill:#0c0f0a;fill-opacity:1;"><g transform="translate(164.59689, 142.11441)"><path style="stroke:none" d="M 33.9375 0 L 33.890625 -19.796875 L 24.1875 -3.484375 L 20.734375 -3.484375 L 11.078125 -19.375 L 11.078125 0 L 3.90625 0 L 3.90625 -33 L 10.234375 -33 L 22.578125 -12.5 L 34.75 -33 L 41.015625 -33 L 41.109375 0 Z M 33.9375 0 "/></g></g><g style="fill:#0c0f0a;fill-opacity:1;"><g transform="translate(209.611694, 142.11441)"><path style="stroke:none" d="M 28.9375 -25.359375 L 28.9375 0 L 21.96875 0 L 21.96875 -3.015625 C 20.988281 -1.910156 19.820312 -1.066406 18.46875 -0.484375 C 17.125 0.0859375 15.664062 0.375 14.09375 0.375 C 10.757812 0.375 8.117188 -0.582031 6.171875 -2.5 C 4.222656 -4.414062 3.25 -7.257812 3.25 -11.03125 L 3.25 -25.359375 L 10.609375 -25.359375 L 10.609375 -12.109375 C 10.609375 -8.023438 12.320312 -5.984375 15.75 -5.984375 C 17.507812 -5.984375 18.921875 -6.554688 19.984375 -7.703125 C 21.054688 -8.847656 21.59375 -10.554688 21.59375 -12.828125 L 21.59375 -25.359375 Z M 28.9375 -25.359375 "/></g></g><g style="fill:#0c0f0a;fill-opacity:1;"><g transform="translate(241.994082, 142.11441)"><path style="stroke:none" d="M 18.8125 -25.734375 C 21.945312 -25.734375 24.484375 -24.789062 26.421875 -22.90625 C 28.359375 -21.019531 29.328125 -18.222656 29.328125 -14.515625 L 29.328125 0 L 21.96875 0 L 21.96875 -13.390625 C 21.96875 -15.398438 21.523438 -16.898438 20.640625 -17.890625 C 19.765625 -18.878906 18.492188 -19.375 16.828125 -19.375 C 14.972656 -19.375 13.492188 -18.800781 12.390625 -17.65625 C 11.296875 -16.507812 10.75 -14.804688 10.75 -12.546875 L 10.75 0 L 3.390625 0 L 3.390625 -25.359375 L 10.421875 -25.359375 L 10.421875 -22.390625 C 11.390625 -23.460938 12.597656 -24.285156 14.046875 -24.859375 C 15.492188 -25.441406 17.082031 -25.734375 18.8125 -25.734375 Z M 18.8125 -25.734375 "/></g></g><g style="fill:#0c0f0a;fill-opacity:1;"><g transform="translate(274.565005, 142.11441)"><path style="stroke:none" d="M 3.390625 -25.359375 L 10.75 -25.359375 L 10.75 0 L 3.390625 0 Z M 7.078125 -28.890625 C 5.722656 -28.890625 4.617188 -29.28125 3.765625 -30.0625 C 2.921875 -30.851562 2.5 -31.832031 2.5 -33 C 2.5 -34.164062 2.921875 -35.140625 3.765625 -35.921875 C 4.617188 -36.703125 5.722656 -37.09375 7.078125 -37.09375 C 8.429688 -37.09375 9.53125 -36.71875 10.375 -35.96875 C 11.226562 -35.21875 11.65625 -34.273438 11.65625 -33.140625 C 11.65625 -31.910156 11.226562 -30.894531 10.375 -30.09375 C 9.53125 -29.289062 8.429688 -28.890625 7.078125 -28.890625 Z M 7.078125 -28.890625 "/></g></g><g style="fill:#0c0f0a;fill-opacity:1;"><g transform="translate(288.752922, 142.11441)"><path style="stroke:none" d="M 18.8125 -25.734375 C 21.945312 -25.734375 24.484375 -24.789062 26.421875 -22.90625 C 28.359375 -21.019531 29.328125 -18.222656 29.328125 -14.515625 L 29.328125 0 L 21.96875 0 L 21.96875 -13.390625 C 21.96875 -15.398438 21.523438 -16.898438 20.640625 -17.890625 C 19.765625 -18.878906 18.492188 -19.375 16.828125 -19.375 C 14.972656 -19.375 13.492188 -18.800781 12.390625 -17.65625 C 11.296875 -16.507812 10.75 -14.804688 10.75 -12.546875 L 10.75 0 L 3.390625 0 L 3.390625 -25.359375 L 10.421875 -25.359375 L 10.421875 -22.390625 C 11.390625 -23.460938 12.597656 -24.285156 14.046875 -24.859375 C 15.492188 -25.441406 17.082031 -25.734375 18.8125 -25.734375 Z M 18.8125 -25.734375 "/></g></g></g></svg>